<svg id="svg" version="1.1" xmlns="http://www.w3.org/2000/svg" xmlns:xlink="http://www.w3.org/1999/xlink" width="400" height="324.78632478632477" viewBox="0, 0, 400,324.78632478632477"><g id="svgg"><path id="path0" d="M0.000 162.470 L 0.000 324.939 200.000 324.939 L 400.000 324.939 400.000 162.470 L 400.000 0.000 200.000 0.000 L 0.000 0.000 0.000 162.470 M152.649 17.728 C 153.517 18.335,153.637 20.159,152.861 20.935 C 151.574 22.222,149.445 21.701,149.017 19.996 C 148.481 17.861,150.786 16.422,152.649 17.728 M197.864 49.922 C 199.094 51.485,198.236 53.290,196.263 53.290 C 194.181 53.290,193.261 50.985,194.845 49.739 C 196.005 48.826,197.052 48.890,197.864 49.922 M190.267 55.062 C 192.305 57.101,189.369 60.082,187.267 58.107 C 186.310 57.208,186.291 55.798,187.226 54.927 C 188.177 54.042,189.296 54.091,190.267 55.062 M197.888 60.439 C 198.718 61.269,198.711 62.080,197.864 63.157 C 197.012 64.240,195.834 64.263,194.786 63.215 C 193.360 61.790,194.223 59.789,196.263 59.789 C 196.805 59.789,197.527 60.078,197.888 60.439 M54.785 86.358 C 56.007 87.174,56.150 88.803,55.092 89.860 C 53.657 91.296,51.340 90.349,51.340 88.327 C 51.340 86.696,53.469 85.479,54.785 86.358 M47.576 92.252 C 49.079 93.913,47.172 96.596,45.252 95.522 C 43.221 94.386,43.705 91.633,45.936 91.633 C 46.585 91.633,47.239 91.880,47.576 92.252 M62.857 92.355 C 64.504 94.706,61.615 97.063,59.580 95.028 C 58.140 93.588,59.127 91.633,61.295 91.633 C 62.018 91.633,62.511 91.860,62.857 92.355 M39.619 96.982 C 41.852 98.137,41.089 101.056,38.556 101.056 C 35.565 101.056,35.606 97.161,38.603 96.528 C 38.656 96.516,39.114 96.721,39.619 96.982 M55.033 97.321 C 55.780 98.068,55.967 99.003,55.534 99.825 C 54.430 101.921,51.340 101.271,51.340 98.944 C 51.340 97.148,53.785 96.074,55.033 97.321 M32.499 102.619 C 33.954 103.797,32.966 106.336,31.053 106.336 C 29.026 106.336,28.188 103.953,29.776 102.704 C 30.829 101.876,31.553 101.853,32.499 102.619 M47.369 102.537 C 48.951 103.645,47.952 106.255,45.947 106.255 C 43.997 106.255,43.246 104.247,44.664 102.828 C 45.586 101.906,46.351 101.824,47.369 102.537 M62.566 102.828 C 64.377 104.640,62.416 107.283,60.135 106.104 C 58.599 105.309,58.397 104.043,59.612 102.828 C 60.624 101.816,61.553 101.816,62.566 102.828 M40.086 107.903 C 42.221 109.582,40.059 112.547,37.538 111.398 C 36.082 110.735,36.020 108.315,37.442 107.630 C 38.546 107.097,39.140 107.159,40.086 107.903 M54.565 107.704 C 56.952 108.939,55.172 112.593,52.726 111.478 C 50.660 110.537,51.203 107.747,53.550 107.250 C 53.603 107.239,54.060 107.443,54.565 107.704 M70.396 108.392 C 71.491 110.064,69.572 112.334,67.837 111.420 C 66.876 110.914,66.624 110.505,66.617 109.446 C 66.606 107.519,69.326 106.760,70.396 108.392 M47.497 113.292 C 48.237 113.962,48.267 115.595,47.553 116.384 C 46.380 117.680,43.867 116.645,43.867 114.866 C 43.867 113.115,46.189 112.108,47.497 113.292 M62.713 113.404 C 64.061 114.752,63.049 116.978,61.089 116.978 C 59.901 116.978,58.814 115.969,58.814 114.866 C 58.814 113.763,59.901 112.754,61.089 112.754 C 61.630 112.754,62.352 113.043,62.713 113.404 M77.716 113.292 C 78.457 113.962,78.486 115.595,77.773 116.384 C 77.045 117.188,75.241 117.158,74.411 116.328 C 72.462 114.379,75.666 111.436,77.716 113.292 M55.331 118.981 C 56.170 120.109,55.871 121.352,54.603 122.008 C 52.341 123.177,50.218 120.375,52.009 118.584 C 52.930 117.663,54.490 117.849,55.331 118.981 M70.126 118.615 C 71.846 120.218,70.124 122.899,67.878 122.116 C 66.911 121.780,66.206 120.515,66.508 119.663 C 67.126 117.921,68.846 117.423,70.126 118.615 M62.652 123.814 C 63.978 125.050,62.911 127.701,61.089 127.701 C 60.715 127.701,60.050 127.342,59.612 126.903 C 57.587 124.879,60.556 121.862,62.652 123.814 M77.454 123.825 C 79.524 125.453,77.355 128.604,75.024 127.356 C 73.556 126.570,73.628 124.095,75.137 123.489 C 76.236 123.047,76.517 123.088,77.454 123.825 M55.092 129.149 C 56.481 130.537,55.837 132.616,53.875 133.080 C 51.863 133.556,50.596 130.690,52.138 129.149 C 53.150 128.136,54.080 128.136,55.092 129.149 M69.981 129.024 C 71.631 130.322,70.610 133.225,68.504 133.225 C 68.162 133.225,67.524 132.866,67.085 132.427 C 64.990 130.332,67.657 127.197,69.981 129.024 M62.857 134.597 C 63.883 136.062,62.792 138.424,61.089 138.424 C 60.150 138.424,58.814 137.002,58.814 136.002 C 58.814 134.077,61.773 133.049,62.857 134.597 M77.660 134.525 C 78.605 135.469,78.502 136.927,77.431 137.769 C 75.342 139.412,72.773 136.843,74.416 134.754 C 75.259 133.684,76.716 133.580,77.660 134.525 M152.804 134.444 C 154.703 136.567,152.004 139.681,149.847 137.855 C 148.810 136.978,148.668 135.783,149.477 134.754 C 150.300 133.708,152.004 133.549,152.804 134.444 M55.092 139.872 C 56.430 141.209,55.479 143.623,53.615 143.623 C 52.738 143.623,51.340 142.225,51.340 141.348 C 51.340 139.484,53.754 138.534,55.092 139.872 M69.981 139.747 C 71.534 140.969,70.557 143.623,68.554 143.623 C 67.512 143.623,66.504 142.505,66.504 141.348 C 66.504 139.366,68.391 138.497,69.981 139.747 M84.986 139.872 C 86.413 141.298,85.598 143.623,83.672 143.623 C 81.478 143.623,80.760 140.561,82.697 139.462 C 83.666 138.913,84.106 138.991,84.986 139.872 M145.100 139.872 C 146.994 141.766,144.589 144.653,142.396 143.117 C 141.195 142.276,141.425 140.248,142.811 139.462 C 143.780 138.913,144.220 138.991,145.100 139.872 M159.989 139.747 C 161.110 140.629,161.179 142.377,160.123 143.117 C 157.784 144.756,155.235 141.510,157.477 139.747 C 157.948 139.377,158.513 139.074,158.733 139.074 C 158.953 139.074,159.518 139.377,159.989 139.747 M175.142 139.724 C 176.672 141.253,175.389 144.000,173.380 143.496 C 170.837 142.858,171.094 139.074,173.680 139.074 C 174.127 139.074,174.785 139.366,175.142 139.724 M62.566 145.071 C 64.062 146.567,63.260 148.822,61.233 148.822 C 59.016 148.822,58.064 146.618,59.612 145.071 C 60.624 144.058,61.553 144.058,62.566 145.071 M77.113 144.647 C 79.229 145.760,78.522 148.822,76.148 148.822 C 73.963 148.822,73.024 146.606,74.559 145.071 C 75.441 144.188,76.050 144.087,77.113 144.647 M152.721 144.923 C 153.582 145.784,153.580 147.558,152.717 148.338 C 151.791 149.177,150.161 149.104,149.421 148.190 C 147.649 146.002,150.740 142.942,152.721 144.923 M167.619 144.842 C 169.253 146.225,168.386 148.822,166.290 148.822 C 164.120 148.822,163.245 146.288,164.950 144.946 C 165.996 144.124,166.736 144.095,167.619 144.842 M40.269 150.653 C 41.116 151.730,41.123 152.541,40.292 153.371 C 38.897 154.767,36.393 153.864,36.393 151.965 C 36.393 149.821,38.937 148.959,40.269 150.653 M70.085 150.503 C 71.499 151.832,70.583 154.021,68.613 154.021 C 66.724 154.021,65.807 151.560,67.258 150.385 C 68.224 149.603,69.168 149.643,70.085 150.503 M85.134 150.447 C 85.491 150.804,85.784 151.462,85.784 151.909 C 85.784 152.356,85.491 153.014,85.134 153.371 C 83.847 154.658,81.560 153.723,81.560 151.909 C 81.560 150.866,82.629 149.797,83.672 149.797 C 84.119 149.797,84.777 150.089,85.134 150.447 M145.331 150.814 C 145.745 151.371,145.890 151.908,145.748 152.355 C 144.960 154.838,141.673 154.452,141.673 151.877 C 141.673 149.834,144.083 149.134,145.331 150.814 M160.195 150.447 C 160.984 151.236,161.037 152.621,160.307 153.427 C 159.134 154.723,156.621 153.688,156.621 151.909 C 156.621 151.462,156.913 150.804,157.271 150.447 C 157.628 150.089,158.286 149.797,158.733 149.797 C 159.180 149.797,159.838 150.089,160.195 150.447 M175.550 150.814 C 176.607 152.235,175.612 154.021,173.764 154.021 C 172.413 154.021,171.568 153.196,171.568 151.877 C 171.568 149.806,174.266 149.085,175.550 150.814 M16.999 155.370 C 18.508 156.163,18.658 157.835,17.317 158.890 C 15.814 160.072,13.972 159.248,13.972 157.393 C 13.972 155.516,15.428 154.542,16.999 155.370 M31.947 155.370 C 33.319 156.092,33.593 157.738,32.505 158.723 C 30.435 160.596,27.744 157.767,29.717 155.794 C 30.615 154.896,30.932 154.836,31.947 155.370 M47.685 155.888 C 48.253 156.632,48.191 157.921,47.553 158.626 C 46.781 159.480,45.010 159.408,44.373 158.498 C 42.838 156.306,46.063 153.765,47.685 155.888 M62.794 156.035 C 64.305 157.782,62.229 160.152,60.137 159.070 C 59.086 158.526,58.725 157.548,59.155 156.415 C 59.717 154.938,61.670 154.734,62.794 156.035 M77.679 155.595 C 79.390 156.981,78.050 159.834,75.890 159.402 C 73.157 158.856,73.427 154.996,76.198 154.996 C 76.605 154.996,77.272 155.266,77.679 155.595 M92.401 155.669 C 93.935 156.876,93.164 159.220,91.234 159.220 C 89.099 159.220,88.245 156.963,89.889 155.669 C 90.360 155.299,90.926 154.996,91.145 154.996 C 91.365 154.996,91.930 155.299,92.401 155.669 M152.515 155.669 C 153.666 156.574,153.666 157.967,152.515 158.872 C 151.391 159.756,150.594 159.722,149.620 158.748 C 147.601 156.729,150.264 153.898,152.515 155.669 M167.912 155.888 C 168.518 156.681,168.404 158.068,167.679 158.723 C 166.328 159.946,164.094 159.024,164.094 157.244 C 164.094 155.362,166.781 154.408,167.912 155.888 M40.086 160.868 C 42.328 162.632,39.881 165.764,37.328 164.398 C 35.933 163.651,36.019 161.283,37.466 160.584 C 38.545 160.063,39.145 160.128,40.086 160.868 M99.543 160.556 C 100.690 161.079,101.172 162.303,100.654 163.382 C 99.802 165.159,97.187 165.071,96.492 163.242 C 96.018 161.996,96.905 160.771,98.685 160.216 C 98.721 160.204,99.107 160.357,99.543 160.556 M25.076 161.058 C 26.372 162.231,25.337 164.744,23.558 164.744 C 21.808 164.744,20.800 162.422,21.984 161.114 C 22.654 160.374,24.287 160.344,25.076 161.058 M70.207 161.189 C 71.095 162.078,70.914 163.364,69.781 164.206 C 68.661 165.039,67.307 164.670,66.680 163.362 C 65.659 161.233,68.500 159.483,70.207 161.189 M85.278 161.242 C 86.768 163.369,84.029 165.914,82.210 164.094 C 81.420 163.305,81.368 161.920,82.097 161.114 C 82.870 160.260,84.640 160.332,85.278 161.242 M17.602 166.257 C 18.398 166.977,18.374 168.707,17.557 169.446 C 15.549 171.264,12.652 168.367,14.470 166.358 C 15.179 165.574,16.791 165.522,17.602 166.257 M32.422 166.225 C 33.298 166.839,33.395 168.478,32.606 169.349 C 31.833 170.203,30.063 170.131,29.425 169.221 C 27.925 167.079,30.280 164.724,32.422 166.225 M47.369 166.225 C 48.245 166.839,48.342 168.478,47.553 169.349 C 46.844 170.133,45.329 170.105,44.517 169.293 C 42.696 167.473,45.242 164.735,47.369 166.225 M78.070 166.738 C 79.288 168.376,77.355 170.581,75.322 169.872 C 72.901 169.028,73.717 165.562,76.284 165.783 C 77.076 165.851,77.631 166.148,78.070 166.738 M92.608 166.369 C 93.988 167.749,93.071 169.943,91.113 169.943 C 89.246 169.943,88.350 167.702,89.683 166.369 C 90.041 166.011,90.699 165.719,91.145 165.719 C 91.592 165.719,92.250 166.011,92.608 166.369 M107.555 166.369 C 108.877 167.691,108.026 169.943,106.205 169.943 C 104.169 169.943,103.274 167.621,104.837 166.392 C 105.913 165.546,106.725 165.539,107.555 166.369 M24.948 171.424 C 26.485 172.500,25.537 175.142,23.615 175.142 C 21.509 175.142,20.671 172.875,22.302 171.591 C 23.325 170.787,23.979 170.745,24.948 171.424 M40.145 171.716 C 41.057 172.628,41.150 173.402,40.462 174.383 C 39.192 176.197,36.410 175.327,36.398 173.111 C 36.387 171.114,38.686 170.257,40.145 171.716 M84.928 171.591 C 86.461 172.798,85.690 175.142,83.760 175.142 C 81.422 175.142,80.676 172.452,82.697 171.306 C 83.617 170.784,83.957 170.828,84.928 171.591 M99.796 171.264 C 101.258 172.047,101.092 174.400,99.524 175.115 C 98.385 175.634,96.977 175.050,96.573 173.891 C 95.862 171.852,97.856 170.226,99.796 171.264 M115.206 171.716 C 116.631 173.141,115.825 175.154,113.806 175.211 C 111.604 175.274,110.628 172.914,112.310 171.591 C 113.435 170.707,114.231 170.741,115.206 171.716 M17.069 176.328 C 18.630 176.927,18.599 179.906,17.025 180.623 C 14.666 181.697,12.613 178.746,14.445 176.915 C 15.246 176.114,16.045 175.935,17.069 176.328 M32.707 176.951 C 34.718 178.961,32.030 182.091,29.799 180.336 C 28.129 179.022,28.988 176.117,31.046 176.117 C 31.501 176.117,32.249 176.492,32.707 176.951 M47.153 176.462 C 48.771 177.327,48.547 179.939,46.793 180.665 C 44.497 181.616,42.749 178.343,44.723 176.790 C 45.686 176.033,46.218 175.961,47.153 176.462 M92.401 176.790 C 93.976 178.029,93.049 180.991,91.087 180.991 C 90.267 180.991,89.033 179.452,89.033 178.430 C 89.033 177.462,90.262 176.117,91.145 176.117 C 91.365 176.117,91.930 176.420,92.401 176.790 M107.573 176.716 C 109.159 178.000,108.138 180.666,106.061 180.666 C 104.036 180.666,103.215 178.066,104.837 176.790 C 105.893 175.959,106.614 175.940,107.573 176.716 M122.679 176.915 C 123.654 177.889,123.688 178.686,122.803 179.810 C 121.588 181.355,119.445 180.788,119.058 178.819 C 118.639 176.686,121.137 175.372,122.679 176.915 M227.258 176.484 C 229.108 177.327,228.994 179.895,227.070 180.692 C 226.244 181.034,225.999 181.000,225.243 180.438 C 223.459 179.111,224.093 176.330,226.224 176.138 C 226.349 176.126,226.815 176.282,227.258 176.484 M25.684 182.815 C 26.232 184.257,25.141 185.865,23.615 185.865 C 21.040 185.865,20.595 182.359,23.071 181.571 C 23.903 181.306,25.377 182.008,25.684 182.815 M235.932 182.848 C 236.319 183.864,235.719 185.209,234.640 185.747 C 232.964 186.582,230.815 184.584,231.698 183.012 C 232.728 181.177,235.260 181.079,235.932 182.848 M39.838 181.890 C 41.224 182.815,41.004 185.112,39.462 185.814 C 37.357 186.773,35.369 183.961,36.931 182.235 C 37.471 181.638,39.160 181.437,39.838 181.890 M85.190 182.179 C 86.505 183.369,85.537 185.865,83.760 185.865 C 82.445 185.865,81.560 185.038,81.560 183.810 C 81.560 181.897,83.777 180.901,85.190 182.179 M100.199 182.130 C 102.030 183.961,99.864 186.934,97.565 185.746 C 96.058 184.966,95.902 182.814,97.287 181.890 C 97.909 181.474,99.690 181.622,100.199 182.130 M115.353 182.291 C 117.360 184.298,114.218 187.291,112.108 185.382 C 111.310 184.659,111.250 183.055,111.992 182.235 C 112.719 181.431,114.524 181.461,115.353 182.291 M205.506 182.363 C 207.141 184.697,204.127 187.230,202.112 185.215 C 200.698 183.801,201.680 181.641,203.737 181.641 C 204.673 181.641,205.130 181.827,205.506 182.363 M220.364 182.179 C 221.714 183.400,220.737 185.865,218.903 185.865 C 216.990 185.865,215.994 183.648,217.272 182.235 C 217.942 181.495,219.576 181.465,220.364 182.179 M92.535 187.346 C 93.981 188.359,92.939 191.389,91.145 191.389 C 90.926 191.389,90.360 191.086,89.889 190.716 C 87.622 188.932,90.168 185.688,92.535 187.346 M107.721 187.494 C 108.960 188.863,108.014 191.389,106.263 191.389 C 105.239 191.389,103.981 190.122,103.981 189.091 C 103.981 187.141,106.448 186.088,107.721 187.494 M197.888 187.490 C 199.150 188.752,198.051 191.389,196.263 191.389 C 195.324 191.389,193.989 189.967,193.989 188.967 C 193.989 187.851,195.069 186.840,196.263 186.840 C 196.805 186.840,197.527 187.129,197.888 187.490 M212.835 187.490 C 214.172 188.827,213.066 191.389,211.152 191.389 C 210.304 191.389,208.936 189.957,208.936 189.069 C 208.936 187.219,211.518 186.173,212.835 187.490 M228.204 187.875 C 228.769 188.635,228.801 188.873,228.452 189.716 C 227.452 192.131,224.227 191.569,224.213 188.978 C 224.202 186.798,226.858 186.064,228.204 187.875 M100.031 192.608 C 101.706 194.024,100.796 196.588,98.619 196.588 C 96.520 196.588,95.519 194.297,96.980 192.837 C 97.916 191.900,99.091 191.812,100.031 192.608 M115.206 192.837 C 116.191 193.822,116.222 194.851,115.297 195.836 C 113.929 197.292,111.454 196.377,111.454 194.416 C 111.454 192.359,113.758 191.389,115.206 192.837 M190.267 192.837 C 191.702 194.272,190.755 196.588,188.733 196.588 C 186.657 196.588,185.745 193.992,187.371 192.712 C 188.496 191.828,189.292 191.862,190.267 192.837 M205.155 192.712 C 206.807 194.012,205.864 196.588,203.737 196.588 C 201.662 196.588,200.771 194.325,202.260 192.837 C 203.234 191.862,204.031 191.828,205.155 192.712 M220.102 192.712 C 221.707 193.974,220.822 196.588,218.791 196.588 C 216.884 196.588,215.983 194.090,217.384 192.689 C 218.215 191.859,219.026 191.866,220.102 192.712 M235.146 192.519 C 236.378 193.382,236.367 195.511,235.126 196.339 C 234.414 196.815,232.757 196.588,232.165 195.934 C 230.325 193.900,232.902 190.947,235.146 192.519 M197.969 198.277 C 198.673 199.091,198.696 200.117,198.032 201.065 C 197.002 202.536,193.989 201.605,193.989 199.816 C 193.989 197.551,196.501 196.580,197.969 198.277 M212.629 197.911 C 214.307 199.231,213.461 201.787,211.346 201.787 C 209.273 201.787,208.284 199.485,209.733 198.036 C 210.708 197.061,211.504 197.027,212.629 197.911 M227.064 197.446 C 229.369 198.064,228.779 201.787,226.377 201.787 C 224.232 201.787,223.371 199.244,225.064 197.911 C 226.013 197.165,226.014 197.165,227.064 197.446 M242.811 198.150 C 243.529 198.767,243.546 200.415,242.842 201.193 C 241.696 202.459,239.155 201.587,239.155 199.928 C 239.155 197.681,241.140 196.715,242.811 198.150 M107.610 198.101 C 108.351 198.771,108.381 200.404,107.667 201.193 C 106.521 202.459,103.981 201.463,103.981 199.747 C 103.981 197.852,106.215 196.838,107.610 198.101 M122.924 198.598 C 124.077 200.150,122.673 202.124,120.694 201.735 C 119.816 201.562,118.824 200.025,119.077 199.229 C 119.668 197.367,121.755 197.025,122.924 198.598 M100.099 203.361 C 100.985 204.078,101.099 205.783,100.313 206.568 C 99.054 207.828,96.507 206.769,96.507 204.986 C 96.507 203.086,98.594 202.142,100.099 203.361 M115.206 203.560 C 116.148 204.502,116.217 205.350,115.432 206.320 C 114.205 207.835,111.454 206.912,111.454 204.986 C 111.454 202.958,113.736 202.090,115.206 203.560 M130.153 203.560 C 131.639 205.046,130.715 206.986,128.521 206.986 C 126.465 206.986,125.763 204.448,127.486 203.242 C 128.466 202.555,129.240 202.647,130.153 203.560 M190.267 203.560 C 191.544 204.837,191.198 206.258,189.431 206.990 C 187.330 207.860,185.536 204.999,187.208 203.442 C 188.176 202.540,189.290 202.583,190.267 203.560 M205.155 203.435 C 206.755 204.694,205.869 206.997,203.762 207.057 C 201.689 207.116,200.792 205.027,202.260 203.560 C 203.234 202.585,204.031 202.551,205.155 203.435 M220.161 203.560 C 221.556 204.954,220.829 206.986,218.935 206.986 C 216.930 206.986,215.986 204.810,217.384 203.412 C 218.254 202.543,219.194 202.593,220.161 203.560 M235.256 203.412 C 235.902 204.058,236.113 205.524,235.657 206.206 C 234.480 207.970,231.682 207.009,231.682 204.842 C 231.682 202.975,233.922 202.078,235.256 203.412 M92.401 208.634 C 94.119 209.986,92.783 212.856,90.672 212.348 C 88.357 211.792,88.771 207.961,91.145 207.961 C 91.365 207.961,91.930 208.264,92.401 208.634 M107.349 208.634 C 109.245 210.126,107.696 213.042,105.460 212.192 C 103.690 211.519,103.624 208.994,105.359 208.297 C 106.388 207.884,106.396 207.885,107.349 208.634 M122.766 208.759 C 123.961 209.889,122.833 212.510,121.152 212.510 C 120.390 212.510,118.928 211.117,118.928 210.391 C 118.928 208.434,121.338 207.409,122.766 208.759 M137.568 208.634 C 139.121 209.856,138.249 212.510,136.294 212.510 C 135.164 212.510,133.875 211.298,133.875 210.236 C 133.875 209.232,135.146 207.961,136.149 207.961 C 136.459 207.961,137.097 208.264,137.568 208.634 M197.740 208.759 C 198.179 209.197,198.538 209.862,198.538 210.236 C 198.538 210.609,198.179 211.274,197.740 211.713 C 197.302 212.151,196.637 212.510,196.263 212.510 C 195.890 212.510,195.225 212.151,194.786 211.713 C 194.348 211.274,193.989 210.609,193.989 210.236 C 193.989 209.862,194.348 209.197,194.786 208.759 C 195.225 208.320,195.890 207.961,196.263 207.961 C 196.637 207.961,197.302 208.320,197.740 208.759 M212.835 208.611 C 214.274 210.050,213.297 212.510,211.286 212.510 C 210.346 212.510,208.936 211.145,208.936 210.236 C 208.936 208.448,211.573 207.349,212.835 208.611 M227.235 208.335 C 228.617 209.062,228.881 210.762,227.782 211.860 C 226.416 213.227,224.100 212.205,224.100 210.236 C 224.100 208.474,225.680 207.516,227.235 208.335 M377.698 208.634 C 379.472 210.030,378.060 213.016,375.944 212.344 C 373.671 211.623,374.087 207.961,376.442 207.961 C 376.662 207.961,377.227 208.264,377.698 208.634 M70.311 214.556 C 70.933 215.394,70.948 215.533,70.495 216.339 C 69.352 218.375,66.613 217.859,66.613 215.608 C 66.613 213.487,69.009 212.806,70.311 214.556 M85.134 214.135 C 85.980 214.980,85.959 216.019,85.077 216.957 C 84.209 217.881,83.072 217.922,82.210 217.059 C 80.923 215.772,81.858 213.485,83.672 213.485 C 84.119 213.485,84.777 213.777,85.134 214.135 M100.137 214.023 C 100.991 214.795,100.919 216.566,100.009 217.203 C 98.435 218.306,96.507 217.422,96.507 215.597 C 96.507 213.763,98.767 212.783,100.137 214.023 M115.353 214.135 C 117.306 216.087,114.480 218.817,112.176 217.203 C 111.300 216.590,111.203 214.951,111.992 214.079 C 112.719 213.275,114.524 213.305,115.353 214.135 M130.277 214.341 C 131.150 215.450,131.126 215.939,130.153 216.912 C 128.219 218.846,125.390 216.483,127.075 214.341 C 127.521 213.773,128.061 213.485,128.676 213.485 C 129.291 213.485,129.830 213.773,130.277 214.341 M205.361 214.135 C 207.193 215.967,204.463 218.837,202.501 217.141 C 201.482 216.259,201.358 215.329,202.130 214.348 C 202.960 213.294,204.424 213.197,205.361 214.135 M220.207 214.191 C 221.148 215.076,221.163 215.987,220.252 216.957 C 219.384 217.881,218.247 217.922,217.384 217.059 C 215.439 215.114,218.201 212.307,220.207 214.191 M235.312 214.023 C 236.165 214.795,236.094 216.566,235.184 217.203 C 233.652 218.276,231.682 217.422,231.682 215.685 C 231.682 213.743,233.887 212.733,235.312 214.023 M370.358 213.991 C 371.838 215.027,370.835 217.709,368.968 217.709 C 367.102 217.709,366.099 215.027,367.578 213.991 C 367.976 213.713,368.601 213.485,368.968 213.485 C 369.336 213.485,369.961 213.713,370.358 213.991 M385.679 214.341 C 387.352 216.468,384.372 218.978,382.453 217.059 C 381.570 216.176,381.607 214.635,382.526 213.991 C 383.634 213.215,384.904 213.356,385.679 214.341 M62.713 219.334 C 64.068 220.689,63.149 222.908,61.233 222.908 C 59.115 222.908,58.211 221.163,59.487 219.540 C 60.311 218.493,61.778 218.399,62.713 219.334 M77.743 219.253 C 79.478 221.193,77.428 223.970,75.136 222.784 C 74.325 222.365,73.786 221.504,73.766 220.596 C 73.733 219.108,76.713 218.101,77.743 219.253 M92.608 219.334 C 94.557 221.283,91.673 224.221,89.628 222.370 C 88.331 221.197,89.366 218.684,91.145 218.684 C 91.592 218.684,92.250 218.976,92.608 219.334 M107.555 219.334 C 108.877 220.656,108.026 222.908,106.205 222.908 C 104.211 222.908,103.370 220.889,104.778 219.482 C 105.745 218.515,106.686 218.465,107.555 219.334 M122.507 219.272 C 123.947 220.439,123.043 222.908,121.175 222.908 C 120.042 222.908,118.827 221.491,119.113 220.501 C 119.587 218.858,121.251 218.256,122.507 219.272 M137.774 219.334 C 139.168 220.728,138.158 223.017,136.149 223.017 C 135.618 223.017,134.889 222.750,134.529 222.425 C 133.113 221.143,134.178 218.684,136.149 218.684 C 136.691 218.684,137.413 218.973,137.774 219.334 M212.891 219.222 C 214.059 220.279,213.407 222.639,211.860 222.946 C 210.846 223.148,209.558 222.553,209.249 221.741 C 208.403 219.516,211.131 217.629,212.891 219.222 M363.379 219.719 C 363.944 220.479,363.976 220.717,363.627 221.560 C 362.611 224.013,359.058 223.309,359.058 220.655 C 359.058 218.678,362.113 218.017,363.379 219.719 M377.832 219.190 C 378.708 219.804,378.805 221.443,378.016 222.314 C 376.816 223.641,374.330 222.693,374.330 220.908 C 374.330 219.068,376.287 218.108,377.832 219.190 M55.092 224.681 C 57.111 226.699,54.448 229.530,52.197 227.759 C 51.149 226.935,51.055 225.468,51.990 224.533 C 52.868 223.655,54.126 223.715,55.092 224.681 M70.039 224.681 C 71.989 226.630,69.385 229.567,67.244 227.833 C 65.754 226.626,66.705 223.883,68.613 223.883 C 68.959 223.883,69.600 224.242,70.039 224.681 M84.946 224.570 C 86.802 226.031,85.058 229.018,82.876 228.114 C 81.263 227.446,81.094 225.013,82.609 224.283 C 83.677 223.768,83.972 223.804,84.946 224.570 M100.290 224.712 C 101.251 225.673,101.149 226.918,100.031 227.864 C 98.570 229.100,96.399 228.081,96.399 226.158 C 96.399 224.050,98.753 223.175,100.290 224.712 M115.206 224.681 C 117.230 226.705,114.261 229.722,112.165 227.770 C 111.168 226.841,111.233 225.404,112.310 224.556 C 113.435 223.672,114.231 223.706,115.206 224.681 M130.153 224.681 C 131.490 226.018,130.540 228.432,128.676 228.432 C 127.799 228.432,126.401 227.034,126.401 226.158 C 126.401 225.281,127.799 223.883,128.676 223.883 C 129.050 223.883,129.714 224.242,130.153 224.681 M145.100 224.681 C 146.121 225.701,146.111 226.624,145.069 227.666 C 143.680 229.055,141.673 228.127,141.673 226.095 C 141.673 224.113,143.697 223.277,145.100 224.681 M355.277 224.556 C 356.753 225.718,355.874 228.432,354.021 228.432 C 352.495 228.432,351.356 226.004,352.315 224.795 C 353.142 223.753,354.152 223.672,355.277 224.556 M370.358 224.389 C 371.899 225.468,370.880 228.432,368.968 228.432 C 367.893 228.432,366.855 227.351,366.861 226.239 C 366.872 224.300,368.786 223.287,370.358 224.389 M46.903 229.443 C 49.014 230.405,48.389 233.631,46.091 233.631 C 43.195 233.631,43.158 230.004,46.045 229.103 C 46.081 229.091,46.467 229.244,46.903 229.443 M62.507 229.756 C 64.159 231.055,63.216 233.631,61.089 233.631 C 58.664 233.631,57.978 230.311,60.216 229.409 C 61.286 228.978,61.574 229.022,62.507 229.756 M92.689 229.983 C 93.407 230.614,93.424 232.259,92.720 233.037 C 91.947 233.891,90.177 233.819,89.539 232.909 C 87.853 230.502,90.490 228.052,92.689 229.983 M137.947 230.170 C 139.061 231.760,138.012 233.631,136.005 233.631 C 134.176 233.631,133.271 231.713,134.365 230.151 C 135.196 228.965,137.110 228.975,137.947 230.170 M347.803 229.756 C 349.411 231.020,348.604 233.636,346.610 233.626 C 344.786 233.617,343.784 232.280,344.431 230.717 C 345.084 229.140,346.506 228.735,347.803 229.756 M77.716 229.945 C 79.044 231.147,78.061 233.635,76.261 233.626 C 74.581 233.618,73.567 232.408,73.952 230.872 C 74.317 229.416,76.530 228.871,77.716 229.945 M107.610 229.945 C 108.464 230.717,108.393 232.488,107.483 233.125 C 105.374 234.602,103.009 232.238,104.486 230.129 C 105.100 229.253,106.739 229.156,107.610 229.945 M122.657 229.848 C 123.444 230.424,123.443 232.121,122.654 232.993 C 121.826 233.908,120.322 233.727,119.494 232.614 C 118.039 230.656,120.644 228.377,122.657 229.848 M363.075 229.896 C 364.457 231.278,363.664 233.376,361.685 233.572 C 359.429 233.795,358.302 230.898,360.162 229.656 C 360.784 229.240,362.566 229.388,363.075 229.896 M55.216 235.462 C 55.586 235.933,55.890 236.591,55.890 236.924 C 55.890 238.657,52.853 239.546,51.846 238.108 C 50.188 235.741,53.432 233.194,55.216 235.462 M70.187 235.256 C 71.272 236.341,70.863 238.276,69.436 238.804 C 67.684 239.452,65.905 237.605,66.577 235.837 C 67.096 234.471,69.082 234.151,70.187 235.256 M85.190 235.144 C 86.505 236.334,85.537 238.830,83.760 238.830 C 82.445 238.830,81.560 238.003,81.560 236.775 C 81.560 234.862,83.777 233.866,85.190 235.144 M100.234 235.245 C 101.816 236.993,99.923 239.707,97.750 238.807 C 95.429 237.845,96.078 234.606,98.592 234.606 C 99.237 234.606,99.883 234.858,100.234 235.245 M115.167 235.116 C 116.379 236.328,116.046 238.258,114.524 238.837 C 112.303 239.681,110.438 236.922,112.104 235.256 C 112.881 234.479,114.458 234.407,115.167 235.116 M130.301 235.256 C 131.622 236.578,130.738 238.834,128.901 238.825 C 127.673 238.819,127.282 238.596,126.757 237.599 C 125.649 235.496,128.593 233.549,130.301 235.256 M340.680 235.328 C 341.795 236.920,340.806 238.939,338.911 238.939 C 337.017 238.939,336.028 236.920,337.143 235.328 C 337.518 234.793,337.975 234.606,338.911 234.606 C 339.848 234.606,340.305 234.793,340.680 235.328 M355.627 235.328 C 356.700 236.860,355.846 238.830,354.110 238.830 C 352.167 238.830,351.157 236.625,352.447 235.200 C 353.219 234.347,354.990 234.418,355.627 235.328 M47.742 240.661 C 49.505 242.901,46.525 245.712,44.517 243.704 C 44.156 243.343,43.867 242.621,43.867 242.080 C 43.867 239.952,46.443 239.009,47.742 240.661 M62.611 240.512 C 63.541 241.385,63.579 242.700,62.701 243.643 C 61.829 244.579,60.600 244.545,59.612 243.557 C 57.537 241.483,60.473 238.503,62.611 240.512 M77.660 240.455 C 79.008 241.803,78.042 244.354,76.183 244.354 C 75.211 244.354,73.761 243.028,73.761 242.138 C 73.761 240.224,76.323 239.118,77.660 240.455 M92.535 240.311 C 93.479 240.972,93.518 242.794,92.608 243.704 C 91.260 245.052,89.033 244.040,89.033 242.080 C 89.033 240.193,90.970 239.214,92.535 240.311 M107.573 240.404 C 109.088 241.631,108.145 244.354,106.205 244.354 C 104.226 244.354,103.299 242.035,104.687 240.557 C 105.539 239.650,106.574 239.595,107.573 240.404 M122.452 240.374 C 123.489 241.251,123.631 242.446,122.822 243.475 C 121.951 244.582,120.781 244.613,119.725 243.557 C 117.782 241.613,120.360 238.604,122.452 240.374 M137.762 240.516 C 138.647 241.467,138.597 242.586,137.626 243.557 C 136.224 244.959,133.875 244.019,133.875 242.056 C 133.875 240.047,136.394 239.049,137.762 240.516 M348.010 240.455 C 349.305 241.750,348.280 244.354,346.476 244.354 C 345.551 244.354,344.110 243.005,344.110 242.138 C 344.110 240.224,346.673 239.118,348.010 240.455 M40.145 245.802 C 41.119 246.776,41.153 247.573,40.269 248.697 C 38.974 250.344,36.393 249.495,36.393 247.423 C 36.393 245.206,38.597 244.254,40.145 245.802 M55.092 245.802 C 56.066 246.776,56.100 247.573,55.216 248.697 C 53.969 250.283,51.340 249.421,51.340 247.426 C 51.340 246.426,52.676 245.004,53.615 245.004 C 53.989 245.004,54.653 245.363,55.092 245.802 M70.085 245.711 C 71.572 247.108,70.618 249.553,68.586 249.553 C 67.334 249.553,66.168 248.145,66.446 246.968 C 66.879 245.129,68.770 244.475,70.085 245.711 M85.073 245.667 C 86.498 246.995,85.634 249.553,83.760 249.553 C 82.339 249.553,81.560 248.737,81.560 247.247 C 81.560 245.211,83.599 244.294,85.073 245.667 M100.081 245.654 C 101.579 247.151,100.661 249.553,98.592 249.553 C 96.519 249.553,95.530 247.251,96.980 245.802 C 97.946 244.836,99.203 244.776,100.081 245.654 M115.206 245.802 C 116.608 247.204,115.668 249.553,113.705 249.553 C 111.600 249.553,110.669 246.968,112.310 245.678 C 113.435 244.793,114.231 244.827,115.206 245.802 M130.094 245.678 C 131.735 246.968,130.805 249.553,128.699 249.553 C 126.657 249.553,125.819 246.933,127.426 245.573 C 128.309 244.826,129.048 244.855,130.094 245.678 M47.607 251.182 C 48.384 252.040,48.377 253.739,47.596 254.311 C 46.044 255.446,43.867 254.428,43.867 252.568 C 43.867 250.806,46.413 249.863,47.607 251.182 M62.857 251.250 C 64.587 253.720,61.327 256.350,59.383 254.053 C 58.113 252.552,59.175 250.528,61.233 250.528 C 62.020 250.528,62.501 250.742,62.857 251.250 M77.716 251.066 C 79.079 252.299,78.086 254.756,76.229 254.747 C 75.033 254.741,74.639 254.513,74.117 253.521 C 73.037 251.471,75.960 249.477,77.716 251.066 M92.663 251.066 C 94.013 252.287,93.036 254.752,91.202 254.752 C 89.293 254.752,88.402 252.874,89.539 251.250 C 90.153 250.374,91.792 250.277,92.663 251.066 M107.610 251.066 C 108.351 251.736,108.381 253.369,107.667 254.158 C 106.412 255.544,103.981 254.495,103.981 252.568 C 103.981 250.882,106.332 249.909,107.610 251.066 M55.123 256.556 C 57.050 258.482,54.369 261.312,52.220 259.621 C 51.046 258.698,51.036 257.313,52.197 256.401 C 53.330 255.509,54.118 255.551,55.123 256.556 M70.039 256.525 C 71.751 258.236,70.033 260.819,67.759 259.955 C 66.314 259.405,66.256 256.631,67.678 256.059 C 68.818 255.600,69.188 255.673,70.039 256.525 M84.928 256.401 C 86.406 257.563,85.902 259.493,83.967 260.081 C 82.992 260.377,81.558 259.170,81.565 258.059 C 81.576 256.057,83.368 255.173,84.928 256.401 M99.793 256.072 C 100.673 256.543,101.113 257.809,100.739 258.794 C 99.850 261.132,96.507 260.374,96.507 257.834 C 96.507 256.129,98.202 255.220,99.793 256.072 M77.520 261.675 C 79.129 263.059,78.256 265.475,76.147 265.475 C 75.370 265.475,73.761 264.185,73.761 263.562 C 73.761 262.723,74.476 261.528,75.137 261.263 C 76.264 260.810,76.578 260.865,77.520 261.675 M92.663 261.789 C 93.861 262.873,92.789 265.475,91.145 265.475 C 90.329 265.475,89.033 264.131,89.033 263.284 C 89.033 261.496,91.306 260.560,92.663 261.789 M212.835 293.420 C 214.159 294.744,213.223 297.319,211.417 297.319 C 210.310 297.319,208.936 296.128,208.936 295.169 C 208.936 293.272,211.526 292.111,212.835 293.420 M205.361 298.619 C 206.769 300.027,205.647 302.843,203.678 302.843 C 202.806 302.843,201.462 301.401,201.462 300.465 C 201.462 298.405,203.963 297.221,205.361 298.619 M212.835 304.143 C 214.191 305.499,213.299 307.722,211.404 307.712 C 210.216 307.706,209.813 307.477,209.309 306.520 C 208.228 304.465,211.172 302.480,212.835 304.143 M325.441 309.490 C 326.833 310.882,325.811 313.241,323.817 313.241 C 321.926 313.241,321.044 310.883,322.396 309.444 C 323.310 308.472,324.440 308.489,325.441 309.490 " stroke="none" fill="#ffffff" fill-rule="evenodd"></path><path id="path1" d="M149.927 17.470 C 147.986 18.766,149.330 22.203,151.559 21.644 C 154.267 20.964,153.881 17.210,151.106 17.227 C 150.654 17.229,150.123 17.339,149.927 17.470 M194.845 49.739 C 193.261 50.985,194.181 53.290,196.263 53.290 C 198.236 53.290,199.094 51.485,197.864 49.922 C 197.052 48.890,196.005 48.826,194.845 49.739 M187.226 54.927 C 186.291 55.798,186.310 57.208,187.267 58.107 C 188.252 59.033,189.281 59.002,190.267 58.016 C 192.291 55.992,189.322 52.975,187.226 54.927 M194.639 60.439 C 193.769 61.308,193.819 62.248,194.786 63.215 C 195.834 64.263,197.012 64.240,197.864 63.157 C 199.094 61.594,198.236 59.789,196.263 59.789 C 195.722 59.789,195.000 60.078,194.639 60.439 M51.990 86.759 C 50.674 88.075,51.720 90.658,53.569 90.658 C 54.409 90.658,55.890 89.306,55.890 88.539 C 55.890 86.437,53.434 85.315,51.990 86.759 M44.308 92.470 C 43.149 94.239,45.205 96.541,47.035 95.522 C 48.146 94.904,48.428 93.194,47.576 92.252 C 46.726 91.313,44.990 91.429,44.308 92.470 M59.706 92.039 C 58.717 92.795,58.662 94.110,59.580 95.028 C 61.615 97.063,64.504 94.706,62.857 92.355 C 62.284 91.536,60.587 91.366,59.706 92.039 M37.844 96.816 C 35.452 97.786,36.001 101.056,38.556 101.056 C 41.089 101.056,41.852 98.137,39.619 96.982 C 39.114 96.721,38.656 96.516,38.603 96.528 C 38.549 96.539,38.208 96.669,37.844 96.816 M51.846 97.554 C 50.764 99.100,51.629 101.060,53.390 101.051 C 54.618 101.045,55.009 100.822,55.534 99.825 C 56.668 97.673,53.241 95.563,51.846 97.554 M29.776 102.704 C 28.188 103.953,29.026 106.336,31.053 106.336 C 32.966 106.336,33.954 103.797,32.499 102.619 C 31.553 101.853,30.829 101.876,29.776 102.704 M44.664 102.828 C 43.246 104.247,43.997 106.255,45.947 106.255 C 47.267 106.255,48.091 105.410,48.091 104.055 C 48.091 102.161,46.059 101.434,44.664 102.828 M59.612 102.828 C 58.397 104.043,58.599 105.309,60.135 106.104 C 62.416 107.283,64.377 104.640,62.566 102.828 C 61.553 101.816,60.624 101.816,59.612 102.828 M37.442 107.630 C 36.020 108.315,36.082 110.735,37.538 111.398 C 38.697 111.927,39.102 111.880,40.086 111.106 C 42.248 109.405,39.971 106.411,37.442 107.630 M52.719 107.566 C 50.167 108.591,51.790 112.457,54.361 111.479 C 56.391 110.708,55.642 106.808,53.550 107.250 C 53.496 107.262,53.122 107.404,52.719 107.566 M67.123 108.065 C 65.561 109.628,67.465 112.340,69.454 111.387 C 71.515 110.399,70.985 107.555,68.740 107.555 C 68.132 107.555,67.404 107.785,67.123 108.065 M44.517 113.404 C 43.188 114.733,44.177 116.978,46.091 116.978 C 47.259 116.978,48.091 116.076,48.091 114.810 C 48.091 112.937,45.860 112.060,44.517 113.404 M59.464 113.404 C 58.116 114.752,59.128 116.978,61.089 116.978 C 62.276 116.978,63.363 115.969,63.363 114.866 C 63.363 113.763,62.276 112.754,61.089 112.754 C 60.547 112.754,59.825 113.043,59.464 113.404 M74.866 113.003 C 72.969 114.269,73.843 116.978,76.148 116.978 C 78.084 116.978,79.114 114.557,77.716 113.292 C 77.106 112.740,75.503 112.577,74.866 113.003 M52.009 118.584 C 50.218 120.375,52.341 123.177,54.603 122.008 C 55.871 121.352,56.170 120.109,55.331 118.981 C 54.490 117.849,52.930 117.663,52.009 118.584 M67.200 118.522 C 66.024 119.890,66.343 121.581,67.878 122.116 C 70.124 122.899,71.846 120.218,70.126 118.615 C 69.253 117.803,67.856 117.758,67.200 118.522 M59.612 123.949 C 58.274 125.287,59.224 127.701,61.089 127.701 C 62.022 127.701,63.363 126.281,63.363 125.291 C 63.363 123.388,61.013 122.548,59.612 123.949 M75.137 123.489 C 73.628 124.095,73.556 126.570,75.024 127.356 C 77.355 128.604,79.524 125.453,77.454 123.825 C 76.517 123.088,76.236 123.047,75.137 123.489 M52.138 129.149 C 51.110 130.176,51.122 131.411,52.169 132.459 C 53.131 133.420,54.375 133.318,55.321 132.200 C 57.140 130.051,54.126 127.161,52.138 129.149 M67.085 129.149 C 64.990 131.244,67.657 134.379,69.981 132.552 C 71.631 131.254,70.610 128.351,68.504 128.351 C 68.162 128.351,67.524 128.710,67.085 129.149 M59.464 134.525 C 58.586 135.403,58.646 136.660,59.612 137.626 C 61.584 139.599,64.473 136.903,62.857 134.597 C 62.196 133.653,60.374 133.614,59.464 134.525 M74.416 134.754 C 72.773 136.843,75.342 139.412,77.431 137.769 C 78.029 137.298,78.310 136.773,78.310 136.126 C 78.310 134.002,75.724 133.091,74.416 134.754 M149.477 134.754 C 148.668 135.783,148.810 136.978,149.847 137.855 C 152.004 139.681,154.703 136.567,152.804 134.444 C 152.004 133.549,150.300 133.708,149.477 134.754 M52.138 139.872 C 50.800 141.209,51.751 143.623,53.615 143.623 C 54.492 143.623,55.890 142.225,55.890 141.348 C 55.890 139.484,53.476 138.534,52.138 139.872 M67.244 139.673 C 65.781 140.858,66.698 143.623,68.554 143.623 C 69.565 143.623,70.837 142.355,70.837 141.348 C 70.837 139.549,68.654 138.532,67.244 139.673 M82.697 139.462 C 80.760 140.561,81.478 143.623,83.672 143.623 C 85.598 143.623,86.413 141.298,84.986 139.872 C 84.106 138.991,83.666 138.913,82.697 139.462 M142.811 139.462 C 140.854 140.572,141.513 143.623,143.710 143.623 C 144.515 143.623,145.898 142.185,145.898 141.348 C 145.898 139.860,144.074 138.746,142.811 139.462 M157.477 139.747 C 155.235 141.510,157.784 144.756,160.123 143.117 C 161.568 142.105,160.527 139.074,158.733 139.074 C 158.513 139.074,157.948 139.377,157.477 139.747 M172.218 139.724 C 170.355 141.587,172.781 144.606,174.982 143.164 C 176.621 142.090,175.661 139.074,173.680 139.074 C 173.233 139.074,172.575 139.366,172.218 139.724 M59.612 145.071 C 58.064 146.618,59.016 148.822,61.233 148.822 C 63.260 148.822,64.062 146.567,62.566 145.071 C 61.553 144.058,60.624 144.058,59.612 145.071 M74.559 145.071 C 73.024 146.606,73.963 148.822,76.148 148.822 C 78.522 148.822,79.229 145.760,77.113 144.647 C 76.050 144.087,75.441 144.188,74.559 145.071 M149.620 145.071 C 148.136 146.555,149.011 148.930,151.042 148.930 C 152.429 148.930,153.371 148.012,153.371 146.660 C 153.371 144.474,151.155 143.535,149.620 145.071 M164.950 144.946 C 163.245 146.288,164.120 148.822,166.290 148.822 C 168.386 148.822,169.253 146.225,167.619 144.842 C 166.736 144.095,165.996 144.124,164.950 144.946 M36.931 150.391 C 36.217 151.180,36.247 152.813,36.987 153.483 C 38.266 154.640,40.942 153.714,40.942 152.115 C 40.942 150.235,38.156 149.038,36.931 150.391 M67.258 150.385 C 65.807 151.560,66.724 154.021,68.613 154.021 C 70.583 154.021,71.499 151.832,70.085 150.503 C 69.168 149.643,68.224 149.603,67.258 150.385 M82.210 150.447 C 80.923 151.734,81.858 154.021,83.672 154.021 C 84.119 154.021,84.777 153.729,85.134 153.371 C 85.491 153.014,85.784 152.356,85.784 151.909 C 85.784 151.462,85.491 150.804,85.134 150.447 C 84.777 150.089,84.119 149.797,83.672 149.797 C 83.225 149.797,82.567 150.089,82.210 150.447 M142.405 150.292 C 141.486 150.941,141.410 152.707,142.268 153.483 C 144.096 155.138,146.796 152.785,145.331 150.814 C 144.572 149.792,143.407 149.584,142.405 150.292 M157.271 150.447 C 156.913 150.804,156.621 151.462,156.621 151.909 C 156.621 153.688,159.134 154.723,160.307 153.427 C 161.490 152.119,160.483 149.797,158.733 149.797 C 158.286 149.797,157.628 150.089,157.271 150.447 M172.299 150.292 C 171.380 150.941,171.304 152.707,172.162 153.483 C 172.904 154.155,174.611 154.181,175.260 153.532 C 177.212 151.580,174.568 148.687,172.299 150.292 M14.622 155.646 C 13.886 156.382,13.740 158.298,14.380 158.829 C 15.820 160.024,18.202 159.086,18.192 157.328 C 18.180 155.334,15.974 154.294,14.622 155.646 M29.717 155.794 C 27.744 157.767,30.435 160.596,32.505 158.723 C 33.593 157.738,33.319 156.092,31.947 155.370 C 30.932 154.836,30.615 154.896,29.717 155.794 M44.695 155.762 C 43.743 156.714,43.654 157.472,44.373 158.498 C 45.010 159.408,46.781 159.480,47.553 158.626 C 49.350 156.641,46.586 153.871,44.695 155.762 M60.190 155.336 C 58.609 155.964,58.577 158.263,60.137 159.070 C 62.229 160.152,64.305 157.782,62.794 156.035 C 62.081 155.210,61.141 154.958,60.190 155.336 M74.718 155.595 C 73.861 156.289,73.711 158.009,74.442 158.741 C 75.259 159.558,76.786 159.668,77.646 158.973 C 79.217 157.700,78.233 154.996,76.198 154.996 C 75.791 154.996,75.125 155.266,74.718 155.595 M89.889 155.669 C 88.245 156.963,89.099 159.220,91.234 159.220 C 92.360 159.220,93.258 158.262,93.258 157.059 C 93.258 156.337,91.885 154.996,91.145 154.996 C 90.926 154.996,90.360 155.299,89.889 155.669 M149.620 155.794 C 147.601 157.812,150.264 160.643,152.515 158.872 C 153.666 157.967,153.666 156.574,152.515 155.669 C 151.391 154.785,150.594 154.819,149.620 155.794 M164.974 155.651 C 163.913 156.485,163.804 157.882,164.733 158.723 C 166.069 159.932,168.318 159.028,168.318 157.282 C 168.318 155.384,166.464 154.479,164.974 155.651 M37.466 160.584 C 36.019 161.283,35.933 163.651,37.328 164.398 C 39.881 165.764,42.328 162.632,40.086 160.868 C 39.145 160.128,38.545 160.063,37.466 160.584 M97.907 160.523 C 95.175 161.623,96.586 165.527,99.362 164.551 C 101.479 163.807,100.813 159.551,98.685 160.216 C 98.649 160.227,98.299 160.365,97.907 160.523 M21.984 161.114 C 20.800 162.422,21.808 164.744,23.558 164.744 C 25.337 164.744,26.372 162.231,25.076 161.058 C 24.287 160.344,22.654 160.374,21.984 161.114 M67.392 160.769 C 65.961 161.725,66.317 163.966,67.995 164.556 C 69.925 165.234,71.640 162.623,70.207 161.189 C 69.544 160.526,68.082 160.308,67.392 160.769 M82.097 161.114 C 80.935 162.399,81.915 164.744,83.615 164.744 C 84.519 164.744,85.784 163.495,85.784 162.602 C 85.784 160.767,83.314 159.770,82.097 161.114 M14.470 166.358 C 12.652 168.367,15.549 171.264,17.557 169.446 C 18.374 168.707,18.398 166.977,17.602 166.257 C 16.791 165.522,15.179 165.574,14.470 166.358 M29.569 166.369 C 28.236 167.702,29.132 169.943,31.000 169.943 C 32.320 169.943,33.144 169.098,33.144 167.743 C 33.144 165.930,30.879 165.060,29.569 166.369 M44.573 166.471 C 43.692 167.409,43.671 168.448,44.517 169.293 C 45.915 170.691,48.091 169.747,48.091 167.743 C 48.091 165.872,45.885 165.075,44.573 166.471 M74.448 166.558 C 73.667 167.551,73.649 167.655,74.063 168.745 C 74.744 170.535,77.365 170.392,78.265 168.515 C 79.287 166.382,75.938 164.664,74.448 166.558 M89.683 166.369 C 88.350 167.702,89.246 169.943,91.113 169.943 C 91.736 169.943,92.406 169.695,92.720 169.349 C 93.903 168.041,92.896 165.719,91.145 165.719 C 90.699 165.719,90.041 166.011,89.683 166.369 M104.837 166.392 C 103.274 167.621,104.169 169.943,106.205 169.943 C 108.026 169.943,108.877 167.691,107.555 166.369 C 106.725 165.539,105.913 165.546,104.837 166.392 M22.302 171.591 C 20.671 172.875,21.509 175.142,23.615 175.142 C 25.537 175.142,26.485 172.500,24.948 171.424 C 23.979 170.745,23.325 170.787,22.302 171.591 M37.043 171.568 C 36.397 172.214,36.186 173.680,36.642 174.362 C 37.470 175.603,39.600 175.615,40.462 174.383 C 41.935 172.280,38.861 169.750,37.043 171.568 M82.697 171.306 C 80.676 172.452,81.422 175.142,83.760 175.142 C 85.690 175.142,86.461 172.798,84.928 171.591 C 83.957 170.828,83.617 170.784,82.697 171.306 M97.380 171.281 C 95.950 172.112,96.192 174.473,97.774 175.129 C 98.951 175.616,100.262 175.049,100.670 173.877 C 101.378 171.848,99.267 170.183,97.380 171.281 M112.310 171.591 C 110.628 172.914,111.604 175.274,113.806 175.211 C 115.825 175.154,116.631 173.141,115.206 171.716 C 114.231 170.741,113.435 170.707,112.310 171.591 M14.445 176.915 C 13.525 177.835,13.460 178.387,14.124 179.669 C 15.483 182.298,19.186 180.266,18.033 177.524 C 17.353 175.907,15.728 175.632,14.445 176.915 M29.569 176.767 C 28.592 177.745,28.703 179.474,29.799 180.336 C 32.030 182.091,34.718 178.961,32.707 176.951 C 31.708 175.951,30.458 175.878,29.569 176.767 M44.723 176.790 C 42.749 178.343,44.497 181.616,46.793 180.665 C 48.547 179.939,48.771 177.327,47.153 176.462 C 46.218 175.961,45.686 176.033,44.723 176.790 M89.889 176.790 C 88.770 177.671,88.746 179.108,89.831 180.193 C 90.804 181.167,91.292 181.190,92.401 180.318 C 93.948 179.101,93.056 176.117,91.145 176.117 C 90.926 176.117,90.360 176.420,89.889 176.790 M104.837 176.790 C 103.215 178.066,104.036 180.666,106.061 180.666 C 108.138 180.666,109.159 178.000,107.573 176.716 C 106.614 175.940,105.893 175.959,104.837 176.790 M119.689 176.951 C 118.747 177.893,118.804 179.513,119.807 180.260 C 121.974 181.875,124.591 178.826,122.679 176.915 C 121.657 175.893,120.736 175.904,119.689 176.951 M225.274 176.448 C 223.875 177.011,223.857 179.406,225.243 180.438 C 226.946 181.704,229.259 179.738,228.428 177.730 C 227.887 176.425,226.616 175.908,225.274 176.448 M23.071 181.571 C 20.595 182.359,21.040 185.865,23.615 185.865 C 25.141 185.865,26.232 184.257,25.684 182.815 C 25.377 182.008,23.903 181.306,23.071 181.571 M232.950 181.758 C 231.560 182.451,231.094 183.734,231.861 184.761 C 233.111 186.435,234.959 186.316,235.828 184.505 C 236.687 182.713,234.748 180.862,232.950 181.758 M36.931 182.235 C 35.369 183.961,37.357 186.773,39.462 185.814 C 41.004 185.112,41.224 182.815,39.838 181.890 C 39.160 181.437,37.471 181.638,36.931 182.235 M82.097 182.235 C 81.384 183.024,81.414 184.657,82.154 185.327 C 83.593 186.629,85.784 185.568,85.784 183.569 C 85.784 181.849,83.270 180.939,82.097 182.235 M97.287 181.890 C 95.902 182.814,96.058 184.966,97.565 185.746 C 99.864 186.934,102.030 183.961,100.199 182.130 C 99.690 181.622,97.909 181.474,97.287 181.890 M111.992 182.235 C 111.250 183.055,111.310 184.659,112.108 185.382 C 114.218 187.291,117.360 184.298,115.353 182.291 C 114.524 181.461,112.719 181.431,111.992 182.235 M201.968 182.363 C 200.398 184.605,203.642 187.295,205.474 185.271 C 206.777 183.830,205.730 181.641,203.737 181.641 C 202.800 181.641,202.343 181.827,201.968 182.363 M217.272 182.235 C 216.558 183.024,216.588 184.657,217.329 185.327 C 218.741 186.606,220.959 185.609,220.959 183.697 C 220.959 181.862,218.494 180.885,217.272 182.235 M89.683 187.490 C 88.434 188.739,89.428 191.389,91.145 191.389 C 92.094 191.389,93.258 190.044,93.258 188.947 C 93.258 187.053,91.028 186.145,89.683 187.490 M104.630 187.490 C 102.692 189.429,105.443 192.514,107.573 190.790 C 108.486 190.050,108.560 188.421,107.721 187.494 C 106.963 186.656,105.466 186.654,104.630 187.490 M194.639 187.490 C 193.377 188.752,194.476 191.389,196.263 191.389 C 197.202 191.389,198.538 189.967,198.538 188.967 C 198.538 187.851,197.457 186.840,196.263 186.840 C 195.722 186.840,195.000 187.129,194.639 187.490 M209.642 187.592 C 208.717 188.577,208.748 189.606,209.733 190.592 C 211.135 191.994,213.485 191.054,213.485 189.091 C 213.485 187.058,211.040 186.105,209.642 187.592 M224.760 187.418 C 224.196 188.041,224.027 189.641,224.457 190.284 C 225.437 191.753,227.744 191.425,228.452 189.716 C 229.282 187.713,226.219 185.807,224.760 187.418 M96.980 192.837 C 96.005 193.811,95.971 194.608,96.855 195.732 C 97.795 196.927,99.451 196.916,100.401 195.709 C 102.186 193.440,99.027 190.789,96.980 192.837 M112.161 192.791 C 110.775 194.266,111.699 196.588,113.672 196.588 C 115.694 196.588,116.641 194.272,115.206 192.837 C 114.205 191.835,113.074 191.819,112.161 192.791 M187.371 192.712 C 185.745 193.992,186.657 196.588,188.733 196.588 C 190.755 196.588,191.702 194.272,190.267 192.837 C 189.292 191.862,188.496 191.828,187.371 192.712 M202.260 192.837 C 200.771 194.325,201.662 196.588,203.737 196.588 C 205.864 196.588,206.807 194.012,205.155 192.712 C 204.031 191.828,203.234 191.862,202.260 192.837 M217.384 192.689 C 215.983 194.090,216.884 196.588,218.791 196.588 C 220.822 196.588,221.707 193.974,220.102 192.712 C 219.026 191.866,218.215 191.859,217.384 192.689 M232.313 192.638 C 230.756 193.899,231.746 196.593,233.763 196.583 C 234.954 196.577,235.353 196.348,235.865 195.376 C 237.008 193.206,234.243 191.075,232.313 192.638 M195.391 197.568 C 194.578 197.892,193.989 198.838,193.989 199.816 C 193.989 201.605,197.002 202.536,198.032 201.065 C 199.358 199.172,197.509 196.724,195.391 197.568 M209.733 198.036 C 208.284 199.485,209.273 201.787,211.346 201.787 C 213.461 201.787,214.307 199.231,212.629 197.911 C 211.504 197.027,210.708 197.061,209.733 198.036 M225.064 197.911 C 223.371 199.244,224.232 201.787,226.377 201.787 C 229.382 201.787,229.129 197.309,226.120 197.242 C 226.010 197.240,225.535 197.541,225.064 197.911 M240.557 197.587 C 239.159 198.107,238.680 200.281,239.749 201.249 C 240.538 201.963,242.172 201.933,242.842 201.193 C 244.326 199.553,242.600 196.828,240.557 197.587 M104.486 198.285 C 103.404 199.830,104.365 201.787,106.205 201.787 C 107.989 201.787,108.937 199.301,107.610 198.101 C 106.739 197.312,105.100 197.409,104.486 198.285 M119.802 198.035 C 118.913 198.923,118.810 199.850,119.496 200.770 C 120.604 202.255,122.483 202.102,123.159 200.471 C 123.947 198.568,121.236 196.601,119.802 198.035 M97.157 203.412 C 95.756 204.813,96.775 207.095,98.801 207.095 C 100.075 207.095,100.839 206.310,100.839 205.001 C 100.839 203.066,98.509 202.060,97.157 203.412 M112.104 203.412 C 110.672 204.844,111.733 207.114,113.806 207.055 C 115.825 206.998,116.631 204.985,115.206 203.560 C 114.240 202.594,112.982 202.534,112.104 203.412 M127.486 203.242 C 125.763 204.448,126.465 206.986,128.521 206.986 C 130.715 206.986,131.639 205.046,130.153 203.560 C 129.240 202.647,128.466 202.555,127.486 203.242 M187.208 203.442 C 185.536 204.999,187.330 207.860,189.431 206.990 C 191.198 206.258,191.544 204.837,190.267 203.560 C 189.290 202.583,188.176 202.540,187.208 203.442 M202.260 203.560 C 200.792 205.027,201.689 207.116,203.762 207.057 C 205.869 206.997,206.755 204.694,205.155 203.435 C 204.031 202.551,203.234 202.585,202.260 203.560 M217.384 203.412 C 215.986 204.810,216.930 206.986,218.935 206.986 C 220.829 206.986,221.556 204.954,220.161 203.560 C 219.194 202.593,218.254 202.543,217.384 203.412 M232.404 203.268 C 230.463 204.628,232.610 208.042,234.711 206.936 C 235.646 206.444,235.895 206.030,235.901 204.955 C 235.911 203.147,233.937 202.194,232.404 203.268 M89.889 208.634 C 88.434 209.780,88.885 211.919,90.672 212.348 C 91.836 212.628,93.258 211.467,93.258 210.236 C 93.258 209.306,92.008 207.961,91.145 207.961 C 90.926 207.961,90.360 208.264,89.889 208.634 M105.359 208.297 C 103.624 208.994,103.690 211.519,105.460 212.192 C 107.696 213.042,109.245 210.126,107.349 208.634 C 106.396 207.885,106.388 207.884,105.359 208.297 M120.330 208.291 C 118.827 208.891,118.538 210.525,119.725 211.713 C 121.181 213.168,123.281 212.284,123.223 210.240 C 123.177 208.602,121.828 207.694,120.330 208.291 M134.731 208.634 C 133.581 209.539,133.581 210.932,134.731 211.837 C 136.334 213.098,138.424 212.198,138.424 210.247 C 138.424 209.232,137.159 207.961,136.149 207.961 C 135.840 207.961,135.202 208.264,134.731 208.634 M194.786 208.759 C 194.348 209.197,193.989 209.862,193.989 210.236 C 193.989 210.609,194.348 211.274,194.786 211.713 C 195.225 212.151,195.890 212.510,196.263 212.510 C 196.637 212.510,197.302 212.151,197.740 211.713 C 198.179 211.274,198.538 210.609,198.538 210.236 C 198.538 209.862,198.179 209.197,197.740 208.759 C 197.302 208.320,196.637 207.961,196.263 207.961 C 195.890 207.961,195.225 208.320,194.786 208.759 M209.733 208.759 C 207.761 210.731,210.457 213.620,212.763 212.004 C 213.271 211.648,213.485 211.167,213.485 210.380 C 213.485 208.163,211.281 207.211,209.733 208.759 M224.840 208.560 C 224.339 208.966,224.100 209.508,224.100 210.236 C 224.100 212.205,226.416 213.227,227.782 211.860 C 229.773 209.869,227.027 206.789,224.840 208.560 M375.186 208.634 C 373.202 210.195,375.102 213.325,377.323 212.155 C 379.251 211.139,378.583 207.961,376.442 207.961 C 376.222 207.961,375.657 208.264,375.186 208.634 M67.344 213.980 C 66.829 214.344,66.613 214.825,66.613 215.608 C 66.613 217.859,69.352 218.375,70.495 216.339 C 71.474 214.594,69.046 212.777,67.344 213.980 M82.210 214.135 C 80.944 215.400,81.852 217.709,83.615 217.709 C 84.550 217.709,85.784 216.449,85.784 215.495 C 85.784 214.542,84.674 213.485,83.672 213.485 C 83.225 213.485,82.567 213.777,82.210 214.135 M97.229 213.991 C 95.682 215.075,96.667 217.709,98.619 217.709 C 99.804 217.709,100.731 216.796,100.731 215.629 C 100.731 213.740,98.846 212.858,97.229 213.991 M111.992 214.079 C 111.203 214.951,111.300 216.590,112.176 217.203 C 113.756 218.310,116.003 217.367,116.003 215.597 C 116.003 213.777,113.219 212.724,111.992 214.079 M127.075 214.341 C 126.202 215.450,126.226 215.939,127.199 216.912 C 129.133 218.846,131.962 216.483,130.277 214.341 C 129.830 213.773,129.291 213.485,128.676 213.485 C 128.061 213.485,127.521 213.773,127.075 214.341 M202.130 214.348 C 201.358 215.329,201.482 216.259,202.501 217.141 C 204.463 218.837,207.193 215.967,205.361 214.135 C 204.424 213.197,202.960 213.294,202.130 214.348 M217.384 214.135 C 216.119 215.400,217.027 217.709,218.790 217.709 C 219.205 217.709,219.863 217.371,220.252 216.957 C 222.080 215.011,219.272 212.247,217.384 214.135 M232.219 214.079 C 230.983 215.445,231.965 217.709,233.794 217.709 C 235.656 217.709,236.668 215.250,235.312 214.023 C 234.523 213.309,232.889 213.339,232.219 214.079 M367.578 213.991 C 366.099 215.027,367.102 217.709,368.968 217.709 C 370.835 217.709,371.838 215.027,370.358 213.991 C 369.961 213.713,369.336 213.485,368.968 213.485 C 368.601 213.485,367.976 213.713,367.578 213.991 M382.526 213.991 C 380.982 215.072,382.066 217.709,384.054 217.709 C 385.007 217.709,386.353 216.473,386.353 215.597 C 386.353 213.967,383.980 212.972,382.526 213.991 M59.487 219.540 C 59.117 220.011,58.814 220.669,58.814 221.002 C 58.814 222.735,61.850 223.624,62.857 222.186 C 64.515 219.819,61.271 217.272,59.487 219.540 M74.435 219.540 C 74.064 220.011,73.763 220.486,73.766 220.596 C 73.823 223.168,77.582 224.056,78.219 221.649 C 78.899 219.081,76.046 217.491,74.435 219.540 M89.683 219.334 C 88.871 220.146,88.844 221.661,89.628 222.370 C 90.416 223.084,92.050 223.054,92.720 222.314 C 93.903 221.006,92.896 218.684,91.145 218.684 C 90.699 218.684,90.041 218.976,89.683 219.334 M104.778 219.482 C 103.370 220.889,104.211 222.908,106.205 222.908 C 108.026 222.908,108.877 220.656,107.555 219.334 C 106.686 218.465,105.745 218.515,104.778 219.482 M119.967 219.253 C 118.948 220.134,118.824 221.064,119.595 222.045 C 120.417 223.090,121.819 223.192,122.655 222.269 C 124.372 220.372,121.892 217.588,119.967 219.253 M134.525 219.334 C 133.131 220.728,134.141 223.017,136.149 223.017 C 136.681 223.017,137.410 222.750,137.770 222.425 C 139.186 221.143,138.121 218.684,136.149 218.684 C 135.608 218.684,134.886 218.973,134.525 219.334 M209.609 219.540 C 208.839 220.519,208.823 220.619,209.249 221.741 C 210.056 223.862,213.485 223.098,213.485 220.796 C 213.485 218.707,210.919 217.876,209.609 219.540 M359.726 219.315 C 358.573 220.468,359.024 222.340,360.599 222.938 C 362.655 223.720,364.642 221.419,363.379 219.719 C 362.518 218.561,360.683 218.358,359.726 219.315 M374.980 219.334 C 373.593 220.720,374.523 222.908,376.498 222.908 C 377.727 222.908,378.554 222.023,378.554 220.708 C 378.554 218.895,376.289 218.025,374.980 219.334 M51.990 224.533 C 50.653 225.870,51.759 228.432,53.674 228.432 C 54.502 228.432,55.890 227.008,55.890 226.158 C 55.890 224.370,53.252 223.271,51.990 224.533 M67.244 224.482 C 65.754 225.689,66.705 228.432,68.613 228.432 C 68.959 228.432,69.600 228.073,70.039 227.635 C 71.989 225.685,69.385 222.749,67.244 224.482 M82.609 224.283 C 81.094 225.013,81.263 227.446,82.876 228.114 C 85.058 229.018,86.802 226.031,84.946 224.570 C 83.972 223.804,83.677 223.768,82.609 224.283 M97.139 224.482 C 96.638 224.888,96.399 225.430,96.399 226.158 C 96.399 228.081,98.570 229.100,100.031 227.864 C 102.358 225.895,99.508 222.564,97.139 224.482 M112.310 224.556 C 111.233 225.404,111.168 226.841,112.165 227.770 C 113.116 228.655,114.235 228.606,115.206 227.635 C 117.224 225.616,114.562 222.785,112.310 224.556 M127.199 224.681 C 125.861 226.018,126.812 228.432,128.676 228.432 C 129.553 228.432,130.950 227.034,130.950 226.158 C 130.950 225.281,129.553 223.883,128.676 223.883 C 128.302 223.883,127.638 224.242,127.199 224.681 M142.323 224.533 C 141.075 225.781,141.655 227.871,143.363 228.283 C 144.401 228.533,145.898 227.278,145.898 226.158 C 145.898 224.418,143.519 223.337,142.323 224.533 M353.209 224.109 C 351.206 224.824,351.884 228.432,354.021 228.432 C 354.884 228.432,356.133 227.087,356.133 226.158 C 356.133 224.731,354.557 223.627,353.209 224.109 M367.994 224.271 C 366.666 225.024,366.432 226.709,367.506 227.782 C 368.912 229.188,371.080 228.115,371.080 226.014 C 371.080 224.290,369.517 223.408,367.994 224.271 M45.269 229.409 C 43.835 229.987,43.433 231.898,44.517 232.981 C 46.189 234.654,49.024 232.722,48.046 230.576 C 47.772 229.974,46.426 228.984,46.045 229.103 C 46.009 229.114,45.659 229.252,45.269 229.409 M60.216 229.409 C 57.978 230.311,58.664 233.631,61.089 233.631 C 63.216 233.631,64.159 231.055,62.507 229.756 C 61.574 229.022,61.286 228.978,60.216 229.409 M90.171 229.473 C 88.192 230.587,88.882 233.631,91.113 233.631 C 92.424 233.631,93.258 232.788,93.258 231.463 C 93.258 229.897,91.467 228.743,90.171 229.473 M135.584 229.338 C 134.091 229.571,133.426 231.546,134.381 232.909 C 135.435 234.414,138.424 233.440,138.424 231.591 C 138.424 230.056,137.200 229.085,135.584 229.338 M345.515 229.468 C 343.298 230.540,344.109 233.614,346.610 233.626 C 348.604 233.636,349.411 231.020,347.803 229.756 C 346.853 229.008,346.547 228.969,345.515 229.468 M74.691 229.738 C 73.958 230.166,73.667 231.546,74.127 232.419 C 75.275 234.600,78.310 233.813,78.310 231.335 C 78.310 229.762,76.225 228.842,74.691 229.738 M104.486 230.129 C 103.009 232.238,105.374 234.602,107.483 233.125 C 108.393 232.488,108.464 230.717,107.610 229.945 C 106.739 229.156,105.100 229.253,104.486 230.129 M119.785 229.896 C 118.914 230.767,118.814 231.700,119.494 232.614 C 120.820 234.398,123.260 233.551,123.260 231.306 C 123.260 229.626,120.980 228.701,119.785 229.896 M360.162 229.656 C 358.302 230.898,359.429 233.795,361.685 233.572 C 363.664 233.376,364.457 231.278,363.075 229.896 C 362.566 229.388,360.784 229.240,360.162 229.656 M51.990 235.256 C 50.635 236.611,51.555 238.830,53.471 238.830 C 55.589 238.830,56.493 237.085,55.216 235.462 C 54.392 234.415,52.925 234.321,51.990 235.256 M67.323 234.828 C 66.586 235.123,66.218 236.577,66.629 237.569 C 67.296 239.180,69.695 239.382,70.491 237.895 C 71.581 235.858,69.583 233.924,67.323 234.828 M82.097 235.200 C 81.384 235.989,81.414 237.622,82.154 238.292 C 83.593 239.595,85.784 238.533,85.784 236.534 C 85.784 234.814,83.270 233.905,82.097 235.200 M96.855 235.462 C 96.090 236.436,96.071 236.545,96.480 237.621 C 97.331 239.861,100.812 239.126,100.812 236.706 C 100.812 234.663,98.144 233.824,96.855 235.462 M112.104 235.256 C 110.438 236.922,112.303 239.681,114.524 238.837 C 116.771 237.982,116.117 234.606,113.705 234.606 C 113.182 234.606,112.461 234.898,112.104 235.256 M127.258 235.095 C 126.511 235.843,126.324 236.777,126.757 237.599 C 127.882 239.735,130.950 239.038,130.950 236.646 C 130.950 234.996,128.420 233.933,127.258 235.095 M337.143 235.328 C 336.028 236.920,337.017 238.939,338.911 238.939 C 340.806 238.939,341.795 236.920,340.680 235.328 C 340.305 234.793,339.848 234.606,338.911 234.606 C 337.975 234.606,337.518 234.793,337.143 235.328 M352.447 235.200 C 351.733 235.989,351.763 237.622,352.503 238.292 C 353.869 239.529,356.133 238.547,356.133 236.718 C 356.133 234.856,353.674 233.844,352.447 235.200 M44.517 240.455 C 43.120 241.852,44.147 244.354,46.118 244.354 C 47.145 244.354,48.416 243.096,48.416 242.080 C 48.416 240.218,45.831 239.141,44.517 240.455 M59.487 240.661 C 58.603 241.786,58.637 242.582,59.612 243.557 C 61.066 245.011,63.363 244.104,63.363 242.075 C 63.363 240.063,60.717 239.098,59.487 240.661 M74.435 240.661 C 73.550 241.786,73.584 242.582,74.559 243.557 C 76.048 245.045,78.310 244.155,78.310 242.080 C 78.310 239.952,75.734 239.009,74.435 240.661 M89.683 240.455 C 88.341 241.797,89.300 244.354,91.145 244.354 C 92.311 244.354,93.258 243.271,93.258 241.936 C 93.258 240.019,91.038 239.100,89.683 240.455 M104.687 240.557 C 103.299 242.035,104.226 244.354,106.205 244.354 C 108.145 244.354,109.088 241.631,107.573 240.404 C 106.574 239.595,105.539 239.650,104.687 240.557 M119.601 240.661 C 118.717 241.786,118.751 242.582,119.725 243.557 C 121.254 245.085,123.802 243.818,123.319 241.769 C 122.865 239.843,120.742 239.211,119.601 240.661 M134.525 240.455 C 133.188 241.792,134.294 244.354,136.208 244.354 C 137.073 244.354,138.424 242.915,138.424 241.993 C 138.424 240.122,135.867 239.113,134.525 240.455 M344.784 240.661 C 343.900 241.786,343.934 242.582,344.908 243.557 C 346.356 245.004,348.660 244.035,348.660 241.977 C 348.660 239.942,346.047 239.055,344.784 240.661 M37.043 245.654 C 36.132 246.565,36.171 248.386,37.115 249.047 C 39.467 250.695,42.156 247.813,40.145 245.802 C 39.179 244.836,37.921 244.776,37.043 245.654 M52.138 245.802 C 50.659 247.281,51.539 249.553,53.591 249.553 C 54.643 249.553,55.890 248.288,55.890 247.220 C 55.890 246.392,54.465 245.004,53.615 245.004 C 53.241 245.004,52.577 245.363,52.138 245.802 M67.312 245.573 C 66.276 246.450,66.133 247.645,66.943 248.674 C 67.785 249.745,69.242 249.848,70.187 248.903 C 72.102 246.988,69.374 243.828,67.312 245.573 M82.282 245.510 C 81.353 246.161,81.277 248.222,82.154 249.015 C 83.025 249.804,84.664 249.707,85.278 248.831 C 86.832 246.612,84.461 243.983,82.282 245.510 M96.980 245.802 C 96.005 246.776,95.971 247.573,96.855 248.697 C 97.994 250.145,100.501 249.649,100.740 247.929 C 101.088 245.428,98.702 244.079,96.980 245.802 M112.310 245.678 C 110.669 246.968,111.600 249.553,113.705 249.553 C 115.668 249.553,116.608 247.204,115.206 245.802 C 114.231 244.827,113.435 244.793,112.310 245.678 M127.426 245.573 C 125.819 246.933,126.657 249.553,128.699 249.553 C 130.805 249.553,131.735 246.968,130.094 245.678 C 129.048 244.855,128.309 244.826,127.426 245.573 M44.517 251.178 C 43.188 252.507,44.079 254.752,45.935 254.752 C 47.400 254.752,48.199 254.082,48.199 252.853 C 48.199 250.798,45.929 249.766,44.517 251.178 M59.464 251.178 C 58.663 251.979,58.629 253.162,59.383 254.053 C 61.327 256.350,64.587 253.720,62.857 251.250 C 62.196 250.306,60.374 250.267,59.464 251.178 M74.618 251.017 C 73.085 252.550,74.029 254.736,76.229 254.747 C 78.086 254.756,79.079 252.299,77.716 251.066 C 76.974 250.394,75.268 250.368,74.618 251.017 M89.539 251.250 C 88.402 252.874,89.293 254.752,91.202 254.752 C 92.421 254.752,93.258 253.869,93.258 252.584 C 93.258 250.661,90.615 249.714,89.539 251.250 M104.630 251.178 C 103.297 252.512,104.193 254.752,106.061 254.752 C 107.371 254.752,108.205 253.909,108.205 252.584 C 108.205 250.712,105.974 249.834,104.630 251.178 M52.197 256.401 C 51.036 257.313,51.046 258.698,52.220 259.621 C 54.369 261.312,57.050 258.482,55.123 256.556 C 54.118 255.551,53.330 255.509,52.197 256.401 M67.678 256.059 C 66.256 256.631,66.314 259.405,67.759 259.955 C 70.033 260.819,71.751 258.236,70.039 256.525 C 69.188 255.673,68.818 255.600,67.678 256.059 M82.697 256.115 C 81.254 256.934,81.124 258.587,82.423 259.608 C 83.346 260.334,84.205 260.263,85.215 259.375 C 86.907 257.890,84.671 254.996,82.697 256.115 M97.229 256.233 C 96.361 256.841,96.241 258.664,97.017 259.440 C 98.230 260.653,100.159 260.319,100.739 258.794 C 101.546 256.671,99.125 254.905,97.229 256.233 M75.137 261.263 C 74.733 261.425,74.257 261.938,74.081 262.401 C 73.235 264.626,75.795 266.401,77.665 264.887 C 79.592 263.326,77.493 260.317,75.137 261.263 M89.571 261.845 C 88.486 263.044,89.540 265.475,91.145 265.475 C 91.994 265.475,93.258 264.130,93.258 263.227 C 93.258 261.464,90.763 260.529,89.571 261.845 M209.733 293.568 C 208.686 294.615,208.709 295.794,209.792 296.646 C 211.439 297.941,213.485 297.054,213.485 295.045 C 213.485 292.970,211.222 292.079,209.733 293.568 M202.136 298.825 C 201.242 299.961,201.285 301.071,202.260 302.046 C 203.730 303.516,206.011 302.505,206.011 300.383 C 206.011 298.122,203.487 297.107,202.136 298.825 M209.733 304.291 C 208.836 305.188,208.775 305.506,209.309 306.520 C 210.391 308.576,213.485 307.939,213.485 305.661 C 213.485 303.684,211.181 302.843,209.733 304.291 M322.396 309.444 C 320.318 311.656,323.296 314.589,325.441 312.444 C 325.880 312.005,326.239 311.340,326.239 310.967 C 326.239 309.122,323.659 308.100,322.396 309.444 " stroke="none" fill="#1c1c1c" fill-rule="evenodd"></path></g></svg>