<?xml version="1.0" standalone="no"?>
<!DOCTYPE svg PUBLIC "-//W3C//DTD SVG 20010904//EN"
 "http://www.w3.org/TR/2001/REC-SVG-20010904/DTD/svg10.dtd">
<svg version="1.0" xmlns="http://www.w3.org/2000/svg"
 width="182.000000pt" height="756.000000pt" viewBox="0 0 182.000000 756.000000"
 preserveAspectRatio="xMidYMid meet">
<metadata>
Created by potrace 1.15, written by Peter Selinger 2001-2017
</metadata>
<g transform="translate(0.000000,756.000000) scale(0.100000,-0.100000)"
fill="#000000" stroke="none">
<path d="M909 7474 c-6 -16 -17 -41 -25 -56 -8 -14 -14 -32 -14 -40 0 -7 -9
-22 -21 -31 -11 -10 -32 -44 -46 -75 -14 -31 -31 -70 -38 -87 -15 -34 -45
-172 -45 -208 0 -12 -5 -28 -11 -34 -7 -7 -10 -529 -9 -1690 0 -1485 -2 -1682
-15 -1693 -19 -16 -19 -73 0 -110 13 -25 15 -179 14 -1217 0 -653 -3 -1196 -5
-1205 -3 -10 -13 -18 -23 -18 -9 0 -21 -4 -26 -9 -6 -5 -61 -19 -124 -31 -63
-12 -121 -26 -130 -30 -9 -5 -24 -11 -34 -14 -15 -5 -17 -25 -17 -229 0 -168
3 -227 13 -235 6 -5 79 -17 162 -27 82 -9 150 -17 150 -18 0 -1 5 -12 12 -24
7 -12 15 -62 19 -112 4 -50 10 -91 14 -91 4 0 10 -27 14 -60 9 -78 15 -80 199
-80 162 0 190 8 195 55 1 17 7 39 13 50 5 11 13 74 17 140 l7 119 160 21 c88
11 166 24 173 28 9 6 12 65 12 238 l0 229 -24 0 c-14 0 -27 4 -30 9 -3 4 -34
14 -68 20 -95 18 -161 33 -183 41 -11 5 -28 11 -37 14 -17 5 -18 92 -19 1548
-1 849 -1 1555 -1 1570 1 15 -3 30 -9 34 -6 4 -5 11 3 22 10 12 10 16 0 19 -6
3 -9 10 -5 16 12 19 13 60 2 74 -6 6 -7 18 -3 24 10 16 11 69 2 69 -5 0 -8
194 -8 430 0 327 -3 435 -12 450 -11 17 -10 22 1 29 11 7 13 129 7 767 -3 418
-8 773 -11 789 -2 17 -9 76 -16 133 -6 56 -14 102 -18 102 -4 0 -15 40 -25 89
-10 49 -24 100 -31 114 -7 14 -23 59 -35 101 -13 41 -31 83 -41 92 -17 16 -19
15 -30 -12z"/>
</g>
</svg>
